<svg width="300" height="300" viewBox="0 0 300 300" fill="none" xmlns="http://www.w3.org/2000/svg">
<path fill-rule="evenodd" clip-rule="evenodd" d="M251.185 255.25C278.809 228.686 296 191.351 296 150C296 69.3664 230.634 4 150 4C69.3664 4 4 69.3664 4 150C4 191.351 21.1905 228.686 48.8148 255.25L74.8505 168.465C76.8102 161.932 82.3862 157.134 89.1376 156.169L114.646 152.525L143.99 148.333C147.976 147.764 152.024 147.764 156.01 148.333L185.354 152.525L210.862 156.169C217.614 157.134 223.19 161.932 225.15 168.465L251.185 255.25ZM247.1 259.033L220.36 169.902C218.961 165.236 214.978 161.808 210.155 161.119L184.646 157.475L155.303 153.283C151.786 152.78 148.214 152.78 144.697 153.283L115.354 157.475L89.8447 161.119C85.0223 161.808 81.0394 165.236 79.6396 169.902L52.9003 259.033C78.7023 282.027 112.719 296 150 296C187.281 296 221.298 282.027 247.1 259.033ZM150 300C232.843 300 300 232.843 300 150C300 67.1573 232.843 0 150 0C67.1573 0 0 67.1573 0 150C0 232.843 67.1573 300 150 300ZM150 135C174.853 135 195 114.853 195 90C195 65.1472 174.853 45 150 45C125.147 45 105 65.1472 105 90C105 114.853 125.147 135 150 135ZM150 140C177.614 140 200 117.614 200 90C200 62.3858 177.614 40 150 40C122.386 40 100 62.3858 100 90C100 117.614 122.386 140 150 140Z" fill="#3F82AE"/>
</svg>
