<svg width="260" height="260" viewBox="0 0 260 260" fill="none" xmlns="http://www.w3.org/2000/svg">
<path fill-rule="evenodd" clip-rule="evenodd" d="M175.395 70C175.395 94.8528 155.247 115 130.395 115C105.542 115 85.3946 94.8528 85.3946 70C85.3946 45.1472 105.542 25 130.395 25C155.247 25 175.395 45.1472 175.395 70ZM180.395 70C180.395 97.6142 158.009 120 130.395 120C102.78 120 80.3946 97.6142 80.3946 70C80.3946 42.3858 102.78 20 130.395 20C158.009 20 180.395 42.3858 180.395 70ZM165.748 132.525L136.405 128.333C132.418 127.764 128.371 127.764 124.384 128.333L95.041 132.525L69.5321 136.169C62.7808 137.134 57.2047 141.932 55.2451 148.465L28 239.282L32.7891 240.718L60.0342 149.902C61.434 145.236 65.4168 141.808 70.2392 141.119L95.7481 137.475L125.091 133.283C128.609 132.78 132.18 132.78 135.698 133.283L165.041 137.475L190.55 141.119C195.372 141.808 199.355 145.236 200.755 149.902L228 240.718L232.789 239.282L205.544 148.465C203.584 141.932 198.008 137.134 191.257 136.169L165.748 132.525Z" fill="#538FB7"/>
</svg>
