<svg width="200" height="200" viewBox="0 0 200 200" fill="none" xmlns="http://www.w3.org/2000/svg">
<path fill-rule="evenodd" clip-rule="evenodd" d="M48.4892 85C41.4399 85 37.054 92.6541 40.6184 98.7359L38.4615 100V102.5L5.00009 102.5L5.00009 180C5.00009 188.284 11.7158 195 20.0001 195L97.5 195L97.5 163.664C88.9996 165.723 80 159.474 80 150C80 140.526 88.9996 134.277 97.5 136.336L97.5 102.5L58.9743 102.5V100L56.8175 98.7359C60.3819 92.6541 55.996 85 48.9467 85H48.7179H48.4892ZM8.63167e-05 180L8.63167e-05 102.5H0L0 97.5H8.63167e-05L8.63167e-05 20C8.63167e-05 8.95431 8.95439 -8.58307e-06 20.0001 -8.58307e-06L180 -8.58307e-06C191.046 -8.58307e-06 200 8.95429 200 20L200 97.5001V102.5L200 180C200 191.046 191.046 200 180 200L20.0001 200C8.95439 200 8.63167e-05 191.046 8.63167e-05 180ZM195 97.5001L195 20C195 11.7157 188.284 4.99999 180 4.99999L102.5 4.99999V39.5001H100L98.7596 41.6707C92.6392 38.1733 85 42.5648 85 49.5001C85 56.4354 92.6392 60.8269 98.7596 57.3295L100 59.5001H102.5L102.5 97.5001L136.432 97.5001C134.362 88.9879 140.646 80.0001 150.125 80.0001C159.605 80.0001 165.889 88.9879 163.819 97.5001H195ZM100 99.5001H100V99.9999H100V99.5001ZM102.5 102.5L140.1 102.5H142.6V100V99.3348L142.27 98.7575C138.765 92.6392 143.161 85.0001 150.125 85.0001C157.09 85.0001 161.486 92.6392 157.981 98.7575L160.15 100V102.5H195L195 180C195 188.284 188.284 195 180 195L102.5 195L102.5 160H100L98.7596 157.829C92.6392 161.327 85 156.935 85 150C85 143.065 92.6392 138.673 98.7596 142.171L100 140H102.5L102.5 102.5ZM5.00009 20L5.00009 97.5L34.7586 97.5C32.6218 88.9684 38.9951 80 48.4892 80H48.7179H48.9467C58.4408 80 64.8141 88.9684 62.6772 97.5L97.5 97.5L97.5 63.1642C88.9996 65.2232 80 58.9745 80 49.5001C80 40.0258 88.9996 33.7771 97.5 35.836V4.99999L20.0001 4.99999C11.7158 4.99999 5.00009 11.7157 5.00009 20Z" fill="#009222"/>
</svg>
