<svg width="640" height="480" viewBox="0 0 640 480" fill="none" xmlns="http://www.w3.org/2000/svg">
<path fill-rule="evenodd" clip-rule="evenodd" d="M620 5H322.5V88.4779L353.958 74.6502C365.523 69.5666 378.5 78.0377 378.5 90.6709V116.923V143.175C378.5 155.808 365.523 164.28 353.958 159.196L322.5 145.368V237.5H444.552L433.966 223.606C425.189 212.086 433.404 195.5 447.886 195.5H481.6H515.314C529.796 195.5 538.01 212.086 529.234 223.606L518.648 237.5H635V20C635 11.7157 628.284 5 620 5ZM322.5 0H317.5H20C8.95431 0 0 8.95432 0 20V237.5V242.5V460C0 471.046 8.95431 480 20 480H317.5H322.5H620C631.046 480 640 471.046 640 460V20C640 8.95431 631.046 0 620 0H322.5ZM322.5 475H620C628.284 475 635 468.284 635 460V242.5H513.6H508.552L511.611 238.485L525.256 220.576C531.526 212.347 525.658 200.5 515.314 200.5H481.6H447.886C437.542 200.5 431.674 212.347 437.943 220.576L451.588 238.485L454.648 242.5H449.6H322.5V332.446L354.092 318.872C365.641 313.91 378.5 322.381 378.5 334.951V360.301V385.651C378.5 398.221 365.641 406.691 354.092 401.729L322.5 388.156V475ZM317.5 242.5H192H186.952L190.011 238.485L203.657 220.576C209.926 212.347 204.058 200.5 193.714 200.5H160H126.286C115.942 200.5 110.074 212.347 116.343 220.576L129.989 238.485L133.048 242.5H128H5V460C5 468.284 11.7157 475 20 475H317.5V384.361V380.566L320.987 382.064L356.066 397.135C364.315 400.68 373.5 394.629 373.5 385.651V360.301V334.951C373.5 325.972 364.315 319.922 356.066 323.466L320.987 338.538L317.5 340.036V336.241V242.5ZM317.5 92.3077V5H20C11.7157 5 5 11.7157 5 20V237.5H122.952L112.366 223.606C103.59 212.086 111.804 195.5 126.286 195.5H160H193.714C208.196 195.5 216.41 212.086 207.634 223.606L197.048 237.5H317.5V141.538V137.709L321.006 139.25L355.97 154.619C364.231 158.25 373.5 152.199 373.5 143.175V116.923V90.6709C373.5 81.6472 364.231 75.5964 355.97 79.2276L321.006 94.5964L317.5 96.1375V92.3077Z" fill="#009222"/>
</svg>
