<svg width="160" height="160" viewBox="0 0 160 160" fill="none" xmlns="http://www.w3.org/2000/svg">
<path fill-rule="evenodd" clip-rule="evenodd" d="M80 160C124.182 160 160 124.182 160 80C160 35.8172 124.182 0 80 0C35.8172 0 0 35.8172 0 80C0 124.182 35.8172 160 80 160ZM80 156.8C37.5846 156.8 3.2 122.415 3.2 80C3.2 37.5846 37.5846 3.2 80 3.2C122.415 3.2 156.8 37.5846 156.8 80C156.8 122.415 122.415 156.8 80 156.8ZM44.5101 87.7232C42.3258 87.036 39.539 86.4712 36.1496 86.0296L32.1999 61.3838C35.8035 61.221 38.7826 62.014 41.137 63.7627C43.4832 65.4608 45.1126 67.3775 46.0252 69.5129L47.5419 69.2698C46.4896 66.5865 44.6225 64.319 41.9405 62.4673C39.309 60.6074 35.9893 59.7913 31.9811 60.0187L30.8874 53.1938L29.3707 53.4369L30.4523 60.186L29.8457 60.2832C25.2452 61.0205 21.8755 62.805 19.7366 65.6367C17.6402 68.4098 16.8878 71.6416 17.4792 75.3321C17.9734 78.4159 19.0529 80.784 20.7177 82.4352C22.3743 84.0368 24.2654 85.16 26.391 85.804C28.559 86.3904 31.363 86.9 34.803 87.3336L38.9472 113.193C36.1181 113.335 33.6376 112.903 31.5058 111.896C29.3742 110.89 27.665 109.608 26.3784 108.051C25.0918 106.494 24.2219 104.949 23.7685 103.414L22.2518 103.657C22.845 105.74 23.9061 107.67 25.4354 109.447C27.0071 111.166 28.9853 112.508 31.3698 113.474C33.7462 114.39 36.3449 114.75 39.1659 114.558L40.1503 120.7L41.667 120.457L40.6947 114.39L41.2255 114.306C44.5622 113.77 47.2121 112.672 49.1753 111.01C51.1386 109.346 52.4384 107.427 53.0748 105.25C53.7618 103.066 53.9271 100.862 53.5706 98.6376C53.0521 95.4024 51.9564 92.9336 50.2836 91.2312C48.6107 89.5288 46.6862 88.3592 44.5101 87.7232ZM21.7851 81.3312C20.355 79.8491 19.4253 77.7684 18.9958 75.089C18.4206 71.4996 19.1378 68.5328 21.1474 66.1884C23.1994 63.7854 26.1717 62.272 30.0644 61.6482L30.6711 61.551L34.56 85.8176C31.4901 85.428 28.951 84.9536 26.9427 84.3936C24.977 83.7752 23.2578 82.7544 21.7851 81.3312ZM50.0906 107.985C48.2308 110.616 45.2029 112.268 41.0068 112.941L40.476 113.026L36.3926 87.5456C39.412 87.9432 41.9086 88.4768 43.8826 89.1456C45.8989 89.756 47.6555 90.8488 49.1524 92.4232C50.6412 93.948 51.6084 96.1 52.054 98.8808C52.605 102.318 51.9505 105.353 50.0906 107.985ZM88.9576 80.6C86.7736 79.9126 83.9872 79.3481 80.5976 78.9061L76.6478 54.2606C80.2512 54.0978 83.2304 54.8909 85.5848 56.6395C87.9312 58.3377 89.5608 60.2544 90.4728 62.3897L91.9896 62.1466C90.9376 59.4633 89.0704 57.1958 86.388 55.3441C83.7568 53.4842 80.4368 52.6681 76.429 52.8956L75.3353 46.0706L73.8186 46.3138L74.9002 53.0628L74.2935 53.16C69.693 53.8973 66.3234 55.6818 64.1845 58.5135C62.0881 61.2866 61.3356 64.5184 61.927 68.2089C62.4213 71.2927 63.5007 73.6606 65.1655 75.3123C66.8222 76.9136 68.7133 78.0365 70.8389 78.681C73.0069 79.267 75.8109 79.7769 79.2509 80.2104L83.3952 106.07C80.5656 106.212 78.0854 105.78 75.9538 104.774C73.822 103.766 72.1128 102.485 70.8262 100.928C69.5397 99.3712 68.6698 97.8256 68.2164 96.2904L66.6997 96.5336C67.2928 98.6168 68.3539 100.546 69.8832 102.324C71.455 104.042 73.4331 105.385 75.8176 106.35C78.194 107.266 80.7928 107.627 83.6136 107.434L84.5984 113.577L86.1152 113.334L85.1424 107.267L85.6736 107.182C89.0104 106.648 91.66 105.549 93.6232 103.886C95.5864 102.223 96.8864 100.304 97.5224 98.128C98.2096 95.9432 98.3752 93.7392 98.0184 91.5144C97.5 88.2792 96.404 85.8104 94.7312 84.108C93.0584 82.4056 91.1344 81.236 88.9576 80.6ZM66.233 74.2079C64.8029 72.7259 63.8731 70.6453 63.4437 67.9658C62.8685 64.3765 63.5856 61.4096 65.5952 59.0653C67.6472 56.6622 70.6195 55.1489 74.5123 54.525L75.119 54.4278L79.0078 78.6942C75.9379 78.3046 73.3989 77.83 71.3906 77.2704C69.4248 76.6521 67.7056 75.6312 66.233 74.2079ZM94.5384 100.862C92.6784 103.493 89.6504 105.145 85.4544 105.818L84.924 105.902L80.8408 80.4224C83.86 80.82 86.3568 81.3536 88.3304 82.0224C90.3464 82.6328 92.1032 83.7256 93.6 85.3C95.0888 86.8248 96.056 88.9768 96.5016 91.7576C97.0528 95.1952 96.3984 98.2304 94.5384 100.862ZM133.406 73.4765C131.222 72.7894 128.434 72.225 125.046 71.7829L121.095 47.1374C124.699 46.9747 127.678 47.7677 130.033 49.5164C132.379 51.2145 134.008 53.1312 134.921 55.2665L136.438 55.0234C135.386 52.3402 133.518 50.0726 130.836 48.2209C128.205 46.361 124.885 45.5449 120.877 45.7724L119.783 38.9475L118.266 39.1906L119.348 45.9396L118.742 46.0369C114.141 46.7742 110.771 48.5586 108.632 51.3903C106.536 54.1634 105.783 57.3952 106.375 61.0858C106.869 64.1696 107.949 66.5374 109.614 68.1892C111.27 69.7904 113.161 70.9133 115.286 71.5578C117.454 72.1438 120.258 72.6537 123.698 73.0876L127.843 98.9464C125.014 99.0888 122.534 98.6568 120.402 97.6504C118.27 96.6432 116.561 95.3616 115.274 93.8048C113.987 92.248 113.118 90.7024 112.664 89.1672L111.147 89.4104C111.741 91.4936 112.802 93.4232 114.331 95.2008C115.903 96.9192 117.881 98.2616 120.266 99.2272C122.642 100.143 125.241 100.504 128.062 100.311L129.046 106.454L130.562 106.211L129.59 100.144L130.122 100.059C133.458 99.5248 136.108 98.4256 138.071 96.7632C140.034 95.1 141.334 93.1808 141.97 91.0048C142.658 88.82 142.823 86.616 142.466 84.3912C141.948 81.156 140.852 78.687 139.179 76.9847C137.506 75.2823 135.582 74.113 133.406 73.4765ZM110.681 67.0847C109.25 65.6028 108.321 63.5221 107.891 60.8426C107.316 57.2533 108.034 54.2864 110.043 51.9421C112.095 49.5391 115.067 48.0257 118.96 47.4018L119.566 47.3046L123.456 71.571C120.386 71.1814 117.846 70.7069 115.838 70.1472C113.873 69.5289 112.154 68.5081 110.681 67.0847ZM138.986 93.7384C137.126 96.3696 134.098 98.0216 129.902 98.6944L129.372 98.7792L125.288 73.2996C128.308 73.6972 130.804 74.2304 132.778 74.8993C134.794 75.5095 136.551 76.6022 138.048 78.1771C139.537 79.7015 140.504 81.8536 140.95 84.6344C141.501 88.072 140.846 91.1072 138.986 93.7384Z" fill="#009222"/>
</svg>
