<svg width="158" height="160" viewBox="0 0 158 160" fill="none" xmlns="http://www.w3.org/2000/svg">
<path fill-rule="evenodd" clip-rule="evenodd" d="M79 160C122.63 160 158 124.183 158 80C158 35.8172 122.63 0 79 0C35.3695 0 0 35.8172 0 80C0 124.183 35.3695 160 79 160ZM79 156.8C37.1147 156.8 3.16 122.415 3.16 80C3.16 37.5845 37.1147 3.2 79 3.2C120.885 3.2 154.84 37.5845 154.84 80C154.84 122.415 120.885 156.8 79 156.8ZM79 72C89.9076 72 98.75 63.0457 98.75 52C98.75 40.9543 89.9076 32 79 32C68.0924 32 59.25 40.9543 59.25 52C59.25 63.0457 68.0924 72 79 72ZM79 70C69.1831 70 61.225 61.9411 61.225 52C61.225 42.0589 69.1831 34 79 34C88.8169 34 96.775 42.0589 96.775 52C96.775 61.9411 88.8169 70 79 70ZM66.9491 59.2579L67.3509 58.3421C74.7753 61.6001 83.2247 61.6001 90.6491 58.3421L91.0509 59.2579C83.3704 62.6282 74.6296 62.6282 66.9491 59.2579ZM73.075 50.4C74.1658 50.4 75.05 49.5046 75.05 48.4C75.05 47.2954 74.1658 46.4 73.075 46.4C71.9842 46.4 71.1 47.2954 71.1 48.4C71.1 49.5046 71.9842 50.4 73.075 50.4ZM86.9 48.4C86.9 49.5046 86.0158 50.4 84.925 50.4C83.8342 50.4 82.95 49.5046 82.95 48.4C82.95 47.2954 83.8342 46.4 84.925 46.4C86.0158 46.4 86.9 47.2954 86.9 48.4ZM48.4 100C48.4 89.5066 56.9066 81 67.4 81H79.395H90.6C101.093 81 109.6 89.5066 109.6 100V128H111.6V100C111.6 88.402 102.198 79 90.6 79H79.395H67.4C55.802 79 46.4 88.402 46.4 100V128H48.4V100Z" fill="#009222"/>
</svg>
