<svg width="50" height="50" viewBox="0 0 50 50" fill="none" xmlns="http://www.w3.org/2000/svg">
<path fill-rule="evenodd" clip-rule="evenodd" d="M46.0312 11H47V36.883L31.0527 25.468L46.0312 11ZM29.5907 26.8802L24.9998 31.3146L20.4089 26.8802L3.47678 39H46.5229L29.5907 26.8802ZM18.9469 25.468L3 36.8827V11H3.96838L18.9469 25.468ZM43.1525 11L24.9998 28.534L6.84714 11H43.1525ZM0 8H3H47H50V11V39V42H47H3H0V39V11V8Z" fill="#00AE29"/>
<circle cx="25.5" cy="24.5" r="12.5" fill="#C27464"/>
<path d="M22.5683 17.64V15.648H27.0803V33H24.8723V17.64H22.5683Z" fill="#F0F0FF"/>
</svg>
