<svg width="30" height="24" viewBox="0 0 30 24" fill="none" xmlns="http://www.w3.org/2000/svg">
<path d="M9.03954 4.8868C8.58983 3.41243 7.36914 3.57402 6.53453 4.26072C4.47859 6.09857 1.80158 9.95611 3.51488 15.5107C4.94975 20.2165 10.9203 23.2258 10.9203 23.2258H3.96024C3.96024 23.2258 0.366485 19.3278 0.0452257 14.7433C-0.361665 8.94699 2.03713 5.29137 4.82122 2.90828C7.43396 0.666457 9.91824 0 9.91824 0L15 16.1129L20.0818 0C20.0818 0 22.566 0.666459 25.1788 2.90828C27.9629 5.29137 30.3617 8.94699 29.9548 14.7433C29.6335 19.3278 26.0398 23.2258 26.0398 23.2258H19.0797C19.0797 23.2258 25.0498 20.2165 26.4851 15.5107C28.1984 9.95675 25.5214 6.0992 23.4655 4.26072C22.6302 3.57402 21.4095 3.41243 20.9605 4.8868C19.4185 9.59255 15.0006 23.0755 15.0006 23.0755C15.0006 23.0755 10.5828 9.58805 9.0408 4.8868H9.03954Z" fill="#1AB63E" fill-opacity="0.9"/>
</svg>
