<svg width="338" height="338" viewBox="0 0 338 338" fill="none" xmlns="http://www.w3.org/2000/svg">
<path fill-rule="evenodd" clip-rule="evenodd" d="M154.458 6.14216L5.96553 154.635C-1.84496 162.445 -1.84496 175.108 5.96553 182.919L154.458 331.411C162.268 339.222 174.932 339.222 182.742 331.411L331.235 182.919C339.045 175.108 339.045 162.445 331.235 154.635L182.742 6.14217C174.932 -1.66832 162.268 -1.66832 154.458 6.14216ZM327.699 158.17L255.221 85.6917L227.453 113.46C237.13 118.647 239.663 132.185 231.365 140.483L230.961 140.887C222.663 149.185 209.126 146.652 203.938 136.975L172.136 168.777L203.502 200.143C208.74 190.567 222.199 187.904 230.472 196.177C238.745 204.45 236.082 217.909 226.506 223.147L255.221 251.862L327.699 179.383C333.557 173.525 333.557 164.028 327.699 158.17ZM179.207 9.6777L251.685 82.1561L221.225 112.616L222.993 114.384L222.362 116.803C231.355 119.15 234.402 130.375 227.83 136.947L227.425 137.352C220.853 143.924 209.628 140.877 207.281 131.884L204.862 132.515L203.094 130.747L168.6 165.241L137.676 134.317C147.251 129.079 149.915 115.62 141.642 107.347C133.368 99.0736 119.91 101.737 114.672 111.313L85.515 82.1562L157.993 9.6777C163.851 3.81984 173.349 3.81984 179.207 9.6777ZM165.065 168.777L131.477 135.189L133.245 133.421L132.587 131.009C141.537 128.568 144.585 117.362 138.106 110.882C131.627 104.403 120.42 107.451 117.979 116.402L115.567 115.744L113.799 117.511L81.9795 85.6917L9.50107 158.17C3.6432 164.028 3.6432 173.525 9.50106 179.383L81.9795 251.862L113.666 220.175L115.434 221.943L117.847 221.287C120.28 230.246 131.492 233.285 137.995 226.782C144.498 220.279 141.46 209.066 132.501 206.633L133.156 204.221L131.388 202.453L165.065 168.777ZM85.5151 255.397L157.993 327.876C163.851 333.734 173.349 333.734 179.207 327.876L251.685 255.397L220.307 224.019L222.075 222.252L221.417 219.84C230.368 217.399 233.416 206.192 226.936 199.713C220.457 193.233 209.25 196.281 206.809 205.232L204.397 204.574L202.63 206.342L168.6 172.312L137.59 203.322C147.187 208.559 149.811 222.038 141.531 230.317C133.251 238.597 119.773 235.974 114.536 226.377L85.5151 255.397Z" fill="#009222"/>
</svg>
