<svg width="50" height="50" viewBox="0 0 50 50" fill="none" xmlns="http://www.w3.org/2000/svg">
<path d="M14.9229 28.45C16.1765 30.1486 17.617 31.6507 19.4779 32.7134C21.5853 33.9179 23.8541 34.2812 26.247 34.1704C27.3649 34.1169 27.7012 33.8253 27.7527 32.7114C27.7874 31.9483 27.8755 31.1872 28.2513 30.5014C28.6206 29.8289 29.1807 29.7016 29.8271 30.12C30.1488 30.3314 30.4198 30.596 30.6764 30.8791C31.3062 31.5665 31.9159 32.2785 32.5683 32.9434C33.3886 33.7786 34.3615 34.2707 35.5821 34.1704L40.3115 34.1725C41.0726 34.1209 41.4685 33.1878 41.0316 32.3357C40.7239 31.7409 40.32 31.2118 39.8931 30.6983C38.9266 29.5373 37.7878 28.5479 36.7109 27.4976C35.7404 26.55 35.6788 25.9999 36.4584 24.9066C37.3118 23.7122 38.2267 22.5652 39.0865 21.3773C39.8887 20.2674 40.7118 19.1592 41.1318 17.8318C41.4008 16.9845 41.1628 16.6112 40.2974 16.4614C40.1476 16.4369 39.9918 16.4369 39.8399 16.4369L34.6938 16.4304C34.0599 16.4203 33.7112 16.6974 33.4873 17.2592C33.1836 18.0187 32.8719 18.7778 32.5103 19.5083C31.694 21.1703 30.7807 22.7767 29.5005 24.135C29.2174 24.4342 28.9033 24.814 28.4317 24.6581C27.8429 24.4427 27.6686 23.4705 27.6786 23.1423L27.6742 17.202C27.5598 16.3551 27.3706 15.9754 26.5277 15.8106H21.1826C20.471 15.8106 20.1118 16.0881 19.73 16.5331C19.5125 16.792 19.4445 16.958 19.8963 17.0441C20.7823 17.2121 21.2853 17.7867 21.4165 18.6755C21.628 20.0975 21.6135 21.5251 21.4906 22.951C21.4556 23.3674 21.3839 23.7822 21.2192 24.172C20.9611 24.7854 20.5423 24.9086 19.9946 24.5313C19.5005 24.1906 19.1517 23.7105 18.8086 23.2285C17.5264 21.4163 16.5047 19.4636 15.6695 17.4114C15.4295 16.8182 15.0131 16.4594 14.3853 16.4489C12.8421 16.4244 11.2973 16.4207 9.75216 16.451C8.82472 16.4675 8.54766 16.9189 8.92741 17.7622C10.6079 21.5025 12.4793 25.1381 14.9229 28.45Z" fill="#00AE29"/>
<path d="M0 0V50H50V0H0ZM46.9072 46.9072H3.09278V3.09278H46.9072V46.9072Z" fill="#00AE29"/>
</svg>
